<?xml version="1.0" encoding="utf-8"?>
<!-- Generator: Adobe Illustrator 21.1.0, SVG Export Plug-In . SVG Version: 6.00 Build 0)  -->
<svg version="1.1" id="Layer_1" xmlns="http://www.w3.org/2000/svg" xmlns:xlink="http://www.w3.org/1999/xlink" x="0px" y="0px"
	 viewBox="0 0 302.9 76" style="enable-background:new 0 0 302.9 76;" xml:space="preserve">
<style type="text/css">
	.st0{fill:#FFFFFF;}
</style>
<g>
	<path class="st0" d="M9.8,7.9h5.5v14.7c4.3-4,9-5.9,14.4-5.9c5.3,0,10.2,2.1,14,5.9c3.8,3.9,5.9,9,5.9,14.4s-2.1,10.6-5.9,14.4
		s-8.7,6-14,6c-11.4,0-19.9-8.6-19.9-22.3c0-0.8,0-1.7,0.1-2.6L9.8,7.9L9.8,7.9L9.8,7.9z M29.6,51.7c8.1,0,14.5-6.6,14.5-14.7
		s-6.4-14.8-14.5-14.8S15.1,28.9,15.1,37C15.1,45.3,21.5,51.7,29.6,51.7z"/>
	<path class="st0" d="M53.3,7.9h5.6v48.3h-5.6V7.9z"/>
	<path class="st0" d="M95.2,40.4c0,10.4-7,16.9-15.9,16.9c-9,0-16-6.7-16-16.9V17.7h5.5v22.9c0,6.8,4.7,11.2,10.4,11.2
		c5.9,0,10.5-4.4,10.5-11.2V17.7h5.5V40.4z"/>
	<path class="st0" d="M118.9,57.3c-5.3,0-10.4-2.1-14.1-5.9c-3.8-3.8-5.9-9-5.9-14.4s2.1-10.5,5.9-14.4c3.8-3.8,8.7-5.9,14.1-5.9
		c5.3,0,10.2,2.1,14,5.9s5.9,9,5.9,14.4v2h-34c1.2,7.8,7,12.9,14.3,12.9c3.9,0,7.2-1.5,10.5-4.5l3.9,3.7
		C129.3,55.2,124.5,57.3,118.9,57.3z M133.1,33.7c-2-7.2-7.6-11.5-14.1-11.5c-6.7,0-12.3,4.4-14.1,11.5H133.1z"/>
	<path class="st0" d="M143.1,7.9h5.5v14.7c4.3-4,9-5.9,14.4-5.9c5.3,0,10.2,2.1,14,5.9c3.8,3.9,5.9,9,5.9,14.4s-2.1,10.6-5.9,14.4
		s-8.7,6-14,6c-11.4,0-19.9-8.6-19.9-22.3c0-0.8,0-1.7,0.1-2.6L143.1,7.9L143.1,7.9L143.1,7.9z M162.8,51.7
		c8.1,0,14.5-6.6,14.5-14.7s-6.5-14.8-14.5-14.8s-14.5,6.7-14.5,14.8C148.4,45.3,154.8,51.7,162.8,51.7z"/>
	<path class="st0" d="M206.5,57.3c-5.3,0-10.4-2.1-14-5.9c-3.8-3.8-5.9-9-5.9-14.4s2.1-10.5,5.9-14.4c3.8-3.8,8.7-5.9,14-5.9
		c5.2,0,10.2,2.1,14,5.9s5.9,9,5.9,14.4v2h-34c1.2,7.8,7,12.9,14.3,12.9c3.8,0,7.2-1.5,10.5-4.5l3.9,3.7
		C216.8,55.2,211.9,57.3,206.5,57.3z M220.6,33.7c-2-7.2-7.6-11.5-14.1-11.5c-6.7,0-12.3,4.4-14.1,11.5H220.6z"/>
	<path class="st0" d="M230.5,36.9c0-12.4,5.1-18.3,17.3-19.2v5.5c-8.1,0.9-11.3,4.8-11.3,13.2v19.8h-6.1L230.5,36.9L230.5,36.9z"/>
	<path class="st0" d="M248.5,36.9c0-12.4,5.1-18.3,17.3-19.2v5.5c-8.1,0.9-11.3,4.8-11.3,13.2v19.8h-6
		C248.5,56.2,248.5,36.9,248.5,36.9z"/>
	<path class="st0" d="M297.2,17.7v20.4c0,4.1-0.1,7.2-2,9.5c-2.3,3-5.3,4.4-8.6,4.4c-6.9,0-11.3-4.8-11.3-14V17.8h-5.1v20.4
		c0,6.1,0.3,10.6,5.2,15.1c2.8,2.5,7.2,4.3,10.9,4.3s7.2-1.6,10.8-4.7c0,0.5,0,0.8,0,1.3c0,9.4-3.7,15.1-10.8,16.7V76
		c11.1-2.1,16.6-10.2,16.6-24.9V17.8L297.2,17.7L297.2,17.7L297.2,17.7z"/>
	<path class="st0" d="M9.7,56.2c-5.4,0-9.7,4.4-9.7,9.7c0,5.4,4.4,9.7,9.7,9.7c5.4,0,9.7-4.4,9.7-9.7C19.4,60.6,15.1,56.2,9.7,56.2z
		 M9.7,71.2c-2.9,0-5.3-2.3-5.3-5.3c0-2.9,2.3-5.3,5.3-5.3c2.9,0,5.3,2.3,5.3,5.3C15,68.8,12.7,71.2,9.7,71.2z"/>
</g>
</svg>
